<svg xmlns="http://www.w3.org/2000/svg" viewBox="-60.30 -38.40 520.40 145.70" width="2082" height="583">
<path d="M 37.589 31.690 A 20.620 20.620 0 1 0 3.223 31.708 L 20.420 57.600 Z M 12.400 19.650 A 8.050 8.050 0 1 1 28.500 19.650 A 8.050 8.050 0 1 1 12.400 19.650 Z M 15.750 19.650 A 4.700 4.700 0 1 1 25.150 19.650 A 4.700 4.700 0 1 1 15.750 19.650 Z" fill="#B81C1C" fill-rule="evenodd"/>
<g transform="scale(0.05) translate(0.000000,1380.000000) scale(0.100000,-0.100000)" fill="#1434C4" fill-rule="evenodd" stroke="none">
<path d="M14695 12600 c-473 -10 -695 -39 -938 -125 -67 -23 -180 -54 -252
-69 -103 -21 -149 -36 -220 -72 -49 -26 -154 -79 -233 -119 -78 -40 -164 -90
-190 -112 -26 -22 -81 -63 -122 -91 -75 -51 -271 -243 -345 -337 -21 -27 -62
-75 -90 -105 -67 -72 -257 -437 -285 -547 -33 -125 -42 -306 -37 -675 6 -446
23 -552 116 -695 21 -33 62 -104 90 -159 59 -114 262 -362 368 -448 213 -175
260 -211 325 -248 40 -22 102 -62 138 -88 82 -60 121 -79 240 -119 52 -17 122
-47 155 -66 117 -69 182 -95 320 -131 77 -20 199 -60 270 -89 156 -64 197 -75
425 -114 131 -22 226 -46 375 -95 110 -35 252 -74 315 -86 217 -40 217 -40
605 -226 207 -98 400 -391 400 -603 -1 -317 -283 -638 -660 -749 -80 -24 -539
-29 -647 -8 -145 29 -451 188 -548 286 -186 186 -227 245 -295 429 -195 525
-198 528 -516 498 -96 -9 -292 -21 -436 -27 -1035 -40 -1150 -50 -1244 -112
-85 -57 -101 -179 -50 -373 16 -60 44 -177 61 -259 36 -171 54 -221 115 -326
24 -41 62 -121 84 -178 45 -113 54 -129 122 -217 25 -33 70 -98 101 -145 133
-206 497 -531 686 -613 46 -20 118 -58 160 -85 97 -61 134 -76 291 -113 69
-16 188 -50 265 -74 333 -108 825 -146 1711 -132 595 9 817 35 1056 126 75 28
197 67 270 86 154 39 192 54 268 102 31 20 106 60 166 89 63 30 138 76 175
106 36 30 101 80 145 112 44 33 107 84 140 115 33 31 91 82 128 114 37 32 88
88 114 125 26 37 74 100 106 141 32 41 83 124 114 185 30 61 71 133 91 161 50
70 77 135 111 261 16 60 45 162 65 228 106 347 108 779 6 1082 -17 49 -46 147
-66 219 -42 155 -59 196 -119 282 -25 36 -64 97 -86 135 -81 144 -396 460
-539 543 -39 22 -100 62 -137 89 -82 61 -147 97 -238 131 -38 14 -110 50 -160
80 -101 61 -143 77 -265 106 -112 26 -203 56 -270 89 -113 56 -192 81 -371
116 -116 22 -242 55 -339 88 -187 64 -248 79 -455 111 -171 27 -355 72 -550
135 -66 21 -156 48 -200 60 -146 40 -214 90 -332 242 -149 193 -119 377 96
593 159 159 228 179 626 179 380 -1 447 -17 625 -150 195 -145 260 -222 334
-394 142 -325 232 -379 562 -336 144 19 378 33 899 51 810 29 813 31 730 454
-44 222 -62 277 -130 398 -30 53 -69 133 -86 177 -37 92 -65 140 -113 194 -18
20 -60 73 -93 117 -69 90 -215 236 -285 283 -26 18 -75 57 -110 88 -38 33
-101 73 -158 101 -52 25 -124 64 -160 86 -106 66 -158 85 -336 126 -93 22
-218 57 -279 80 -148 53 -164 57 -360 81 -157 20 -637 41 -830 38 -38 -1 -214
-5 -390 -8z"/>
<path d="M22650 12594 c-210 -24 -398 -60 -551 -105 -94 -27 -231 -63 -303
-80 -180 -40 -216 -53 -327 -115 -52 -30 -133 -67 -180 -83 -107 -36 -158 -62
-239 -121 -36 -26 -94 -65 -129 -85 -35 -21 -89 -61 -120 -89 -31 -28 -90 -77
-131 -108 -118 -89 -397 -372 -485 -493 -16 -22 -55 -70 -87 -108 -31 -37 -74
-97 -94 -135 -20 -37 -67 -112 -104 -168 -52 -78 -76 -126 -105 -215 -21 -63
-60 -155 -86 -205 -60 -115 -83 -183 -109 -325 -11 -63 -47 -226 -80 -362
-102 -422 -112 -561 -91 -1280 13 -445 22 -526 87 -754 24 -87 56 -219 70
-293 38 -209 49 -246 118 -385 35 -71 78 -175 97 -229 22 -67 50 -124 86 -175
29 -42 74 -116 100 -164 26 -48 70 -116 98 -150 28 -34 78 -98 112 -142 158
-208 489 -524 657 -627 54 -34 121 -81 148 -104 28 -23 84 -57 126 -76 42 -18
115 -53 162 -77 47 -24 118 -61 158 -81 49 -25 108 -45 180 -60 59 -12 193
-50 297 -85 340 -114 587 -139 1350 -140 553 0 554 0 989 46 113 12 220 41
365 98 55 23 162 56 238 75 164 42 185 50 292 115 45 27 124 67 174 88 51 21
121 60 157 87 36 28 103 74 150 103 195 121 663 583 752 742 17 31 62 100 101
154 38 54 88 141 112 195 23 53 62 129 87 167 60 92 74 127 109 272 16 67 47
173 70 235 88 242 106 329 133 628 44 476 46 1081 7 1554 -30 360 -40 412
-116 617 -25 66 -63 186 -84 267 -45 166 -63 213 -115 295 -21 32 -61 108 -90
170 -29 62 -80 149 -113 193 -33 45 -77 111 -97 148 -20 36 -61 92 -90 123
-29 32 -76 87 -106 123 -67 82 -276 281 -355 340 -33 24 -85 65 -115 91 -30
26 -104 77 -165 114 -60 37 -138 86 -172 110 -34 24 -99 56 -145 71 -46 16
-138 57 -204 91 -139 71 -206 92 -390 128 -72 14 -180 41 -240 59 -338 107
-455 119 -1154 121 -316 2 -591 1 -610 -1z m671 -1714 c306 -30 570 -102 688
-189 36 -26 93 -66 126 -88 69 -46 249 -228 285 -288 13 -22 44 -67 68 -100
64 -87 88 -140 128 -278 19 -67 55 -180 79 -252 120 -354 118 -1392 -5 -1790
-16 -52 -46 -160 -66 -238 -69 -271 -216 -494 -454 -694 -154 -130 -310 -200
-630 -284 -103 -27 -441 -31 -540 -6 -264 66 -514 165 -591 234 -30 27 -79 68
-109 92 -109 85 -266 266 -313 360 -24 47 -65 125 -91 173 -76 140 -92 212
-141 658 -14 129 -37 289 -50 355 -27 130 -32 271 -15 405 6 41 19 153 31 248
56 474 108 721 176 837 16 28 54 97 84 154 37 73 75 128 124 180 39 42 89 99
113 128 23 28 68 68 100 89 31 20 87 61 124 91 97 77 146 98 329 143 287 72
355 79 550 60z"/>
<path d="M34219 12466 c-4 -4 -168 -8 -365 -10 -583 -4 -574 3 -586 -481 -13
-585 -28 -1941 -34 -3025 -7 -1576 0 -1507 -188 -1782 -81 -118 -230 -269
-326 -331 -25 -16 -301 -113 -420 -148 -141 -41 -378 -47 -534 -12 -127 28
-452 148 -500 184 -123 93 -221 186 -255 242 -20 33 -63 100 -95 151 -145 224
-142 176 -152 2356 -13 2900 -6 2723 -111 2790 -88 56 -73 55 -1048 55 -1029
0 -975 4 -1066 -85 -71 -69 -67 33 -74 -1835 -9 -2385 -1 -2688 79 -3090 19
-99 45 -242 56 -318 25 -164 48 -244 103 -352 22 -44 63 -141 91 -215 37 -95
71 -164 118 -235 36 -55 81 -127 99 -159 18 -33 58 -87 89 -120 31 -34 76 -86
99 -116 57 -74 271 -274 367 -343 44 -32 104 -78 134 -103 30 -25 96 -65 146
-89 51 -24 126 -67 168 -94 93 -60 156 -85 300 -117 59 -13 174 -47 255 -74
169 -59 302 -84 521 -99 531 -38 621 -41 1064 -41 757 0 1053 32 1370 150 75
27 182 61 238 74 127 30 163 45 252 105 39 26 115 72 169 101 54 30 126 79
160 108 34 30 89 72 121 95 60 40 265 241 404 395 40 44 102 129 138 189 36
59 81 128 99 153 42 57 69 112 102 203 14 39 51 124 83 187 73 146 81 173 129
410 22 107 49 238 60 290 58 276 61 391 61 2734 1 1574 -2 2110 -11 2136 -28
84 -108 133 -242 150 -94 12 -1059 26 -1068 16z"/>
<path d="M40027 12464 c-2 -2 -642 -6 -1423 -8 -1756 -5 -1730 -4 -1807 -96
-48 -57 -48 -61 -45 -830 4 -777 3 -769 56 -831 60 -72 21 -68 904 -75 1238
-9 1233 -8 1285 -114 22 -45 22 -45 33 -2621 6 -1416 14 -2589 19 -2605 27
-96 86 -157 184 -191 82 -29 1842 -28 1930 1 71 23 137 79 168 143 26 53 27
107 42 3933 3 712 9 1304 13 1315 48 131 39 130 1288 139 959 7 909 -1 959
160 28 93 16 1494 -14 1551 -32 63 -87 102 -159 114 -52 9 -3424 23 -3433 15z"/>
<path d="M45709 12465 c-3 -2 -135 -6 -294 -7 -340 -3 -380 -14 -440 -112 -30
-49 -30 -49 -35 -1800 -10 -3343 1 -5252 29 -5313 31 -69 86 -118 158 -140
119 -37 1868 -17 1947 22 118 58 114 8 126 1483 10 1277 10 1277 33 1322 51
104 74 107 927 115 1184 11 1383 -1 1453 -84 46 -55 46 -52 57 -1364 13 -1379
9 -1315 73 -1399 88 -116 61 -113 1096 -113 711 0 935 3 967 12 81 25 138 80
166 162 21 60 24 6986 3 7058 -19 65 -65 114 -132 139 -71 28 -1850 35 -1950
8 -79 -20 -147 -65 -181 -118 -30 -46 -31 -86 -50 -1616 -10 -765 -8 -746 -81
-819 -66 -66 -47 -64 -771 -68 -897 -5 -1442 6 -1493 31 -107 52 -106 37 -117
1312 -12 1279 -4 1205 -134 1259 -59 25 -1335 53 -1357 30z"/>
<path d="M54345 12461 c-510 -8 -536 -15 -600 -144 -28 -59 -43 -6914 -14
-7020 27 -101 93 -176 174 -196 62 -15 5332 -16 5405 0 78 17 139 63 175 133
32 64 54 1337 25 1447 -46 168 -39 168 -2261 174 -1241 3 -1157 -1 -1213 65
-66 79 -70 318 -75 4176 -1 1269 1 1219 -63 1281 -86 83 -417 101 -1553 84z"/>
<path d="M61090 12464 c-116 -22 -191 -68 -225 -138 -30 -61 -36 -6983 -7
-7070 49 -143 100 -158 567 -168 1554 -33 1637 -24 1700 186 26 86 22 6985 -4
7041 -36 78 -111 120 -244 137 -82 10 -1739 21 -1787 12z"/>
<path d="M65430 12461 c-322 -7 -344 -14 -394 -114 -29 -58 -29 -58 -29 -3550
0 -3900 -6 -3564 69 -3647 57 -62 30 -61 976 -58 962 3 894 -2 977 73 91 82
85 13 92 1130 8 1267 26 2375 40 2442 29 145 152 151 237 12 20 -33 67 -101
105 -150 37 -50 80 -116 96 -147 16 -31 63 -103 104 -159 41 -57 89 -127 105
-157 17 -29 60 -89 96 -132 37 -43 82 -109 101 -146 20 -37 62 -103 95 -147
32 -44 82 -117 110 -162 28 -45 70 -104 94 -133 24 -28 67 -91 95 -139 28 -49
75 -119 104 -156 29 -37 74 -105 100 -152 26 -46 71 -112 101 -147 29 -34 70
-92 92 -129 21 -37 67 -102 100 -144 34 -43 82 -114 107 -157 26 -44 73 -113
105 -154 32 -40 77 -104 100 -143 22 -38 64 -100 94 -137 29 -36 71 -99 92
-140 21 -40 72 -116 111 -170 40 -53 87 -123 104 -155 18 -32 75 -113 129
-180 202 -252 178 -247 1083 -239 1158 11 1109 4 1171 156 29 71 40 1832 32
4955 -6 2340 2 2185 -117 2247 -45 24 -981 48 -1227 32 -52 -3 -185 -6 -295
-5 -287 1 -356 -16 -428 -100 -55 -63 -54 -52 -57 -1239 -5 -2324 -8 -2401
-78 -2439 -80 -43 -158 4 -234 141 -25 46 -67 110 -93 143 -26 33 -65 92 -87
130 -23 39 -70 106 -104 149 -35 44 -80 111 -100 149 -20 38 -65 108 -101 154
-35 46 -82 113 -104 150 -23 36 -67 97 -99 135 -32 38 -79 108 -104 157 -26
48 -69 115 -96 148 -27 33 -70 96 -96 139 -26 44 -73 111 -105 149 -31 39 -78
108 -104 155 -26 47 -70 113 -97 147 -27 35 -72 101 -99 148 -27 47 -71 113
-99 145 -27 33 -68 93 -91 132 -23 40 -70 109 -104 153 -34 44 -83 116 -109
160 -27 44 -70 105 -97 136 -26 30 -69 91 -94 134 -26 44 -71 110 -101 148
-30 38 -75 108 -101 156 -25 47 -70 115 -98 151 -28 36 -65 83 -80 105 -76
107 -124 138 -242 161 -78 15 -949 17 -1553 5z"/>
<path d="M74105 12460 c-225 -16 -290 -42 -334 -133 -29 -61 -34 -6977 -5
-7065 22 -67 58 -115 107 -143 48 -27 1120 -39 3687 -41 1958 -2 2133 4 2281
80 68 34 132 62 142 62 22 0 27 1478 5 1484 -7 1 -65 20 -128 42 -130 44 -382
49 -2390 53 -1325 3 -1357 5 -1407 112 -25 52 -45 1086 -24 1167 43 156 -30
150 1746 162 1490 11 1586 14 1664 52 120 60 136 165 127 823 -6 503 -15 557
-95 612 -61 41 -108 43 -1661 53 -1629 11 -1650 12 -1724 63 -63 44 -66 63
-62 474 4 409 6 423 72 485 79 73 114 75 1874 88 1737 13 1712 12 1777 82 69
74 68 61 68 718 0 595 0 595 -25 644 -33 65 -81 103 -149 116 -71 13 -5362 23
-5546 10z"/>
</g>
<g fill="#6E7073" fill-rule="nonzero" stroke="none">
<g transform="translate(56.338,68.900) scale(0.013786,-0.013786)"><path d="M621 200C621 290 565 356 466 383L283 432C195 455 163 484 163 540C163 614 228 669 326 669C442 669 508 616 508 521H596C596 664 497 747 329 747C169 747 70 659 70 527C70 438 117 382 213 357L394 309C486 285 528 248 528 191C528 111 468 64 342 64C204 64 136 133 136 237H48C48 65 164 -18 336 -18C521 -18 621 70 621 200Z"/></g>
<g transform="translate(67.465,68.900) scale(0.013786,-0.013786)"><path d="M645 222V729H552V222C552 124 481 64 364 64C255 64 178 116 178 222V729H85V222C85 74 191 -18 364 -18C535 -18 645 76 645 222Z"/></g>
<g transform="translate(79.351,68.900) scale(0.013786,-0.013786)"><path d="M679 0V23C644 47 636 73 635 170C633 290 615 326 536 360C618 400 651 451 651 534C651 660 572 729 429 729H93V0H186V314H426C508 314 547 274 546 184L545 119C544 74 553 30 566 0ZM554 521C554 435 510 396 411 396H186V647H411C515 647 554 603 554 521Z"/></g>
<g transform="translate(91.236,68.900) scale(0.013786,-0.013786)"><path d="M645 729H546L344 112L130 729H30L292 0H392Z"/></g>
<g transform="translate(102.363,68.900) scale(0.013786,-0.013786)"><path d="M613 0V82H183V332H580V414H183V647H595V729H90V0Z"/></g>
<g transform="translate(113.490,68.900) scale(0.013786,-0.013786)"><path d="M661 729H550L342 374L128 729H13L294 286V0H387V286Z"/></g>
<g transform="translate(124.617,68.900) scale(0.013786,-0.013786)"><path d="M193 0V729H100V0Z"/></g>
<g transform="translate(130.381,68.900) scale(0.013786,-0.013786)"><path d="M646 0V729H558V133L177 729H76V0H164V591L541 0Z"/></g>
<g transform="translate(142.267,68.900) scale(0.013786,-0.013786)"><path d="M709 0V385H405V303H627V283C627 153 531 64 398 64C233 64 137 184 137 362C137 541 239 665 393 665C504 665 584 602 604 508H699C673 656 561 747 394 747C171 747 44 575 44 357C44 133 181 -18 378 -18C477 -18 556 17 627 96L650 0Z"/></g>
<g transform="translate(160.688,68.900) scale(0.013786,-0.013786)"><path d="M637 0 515 151C552 208 573 274 573 334H493C493 297 482 251 462 215L329 378C433 437 467 480 467 552C467 644 399 709 304 709C209 709 133 640 133 552C133 505 152 467 214 389C90 317 52 267 52 176C52 56 134 -23 257 -23C341 -23 382 -4 466 78L528 0ZM388 554C388 509 363 480 285 431C224 501 215 518 215 553C215 605 249 639 301 639C351 639 388 603 388 554ZM418 137C362 78 319 55 267 55C195 55 136 113 136 183C136 239 167 279 258 337Z"/></g>
<g transform="translate(177.579,68.900) scale(0.013786,-0.013786)"><path d="M761 0V729H632L420 94L204 729H75V0H163V611L370 0H468L673 611V0Z"/></g>
<g transform="translate(190.995,68.900) scale(0.013786,-0.013786)"><path d="M653 0 397 729H277L17 0H116L193 219H474L549 0ZM448 297H216L336 629Z"/></g>
<g transform="translate(202.122,68.900) scale(0.013786,-0.013786)"><path d="M617 515C617 652 536 729 392 729H91V0H184V309H413C533 309 617 394 617 515ZM520 519C520 439 467 391 378 391H184V647H378C467 647 520 599 520 519Z"/></g>
<g transform="translate(213.249,68.900) scale(0.013786,-0.013786)"><path d="M617 515C617 652 536 729 392 729H91V0H184V309H413C533 309 617 394 617 515ZM520 519C520 439 467 391 378 391H184V647H378C467 647 520 599 520 519Z"/></g>
<g transform="translate(224.376,68.900) scale(0.013786,-0.013786)"><path d="M193 0V729H100V0Z"/></g>
<g transform="translate(230.140,68.900) scale(0.013786,-0.013786)"><path d="M646 0V729H558V133L177 729H76V0H164V591L541 0Z"/></g>
<g transform="translate(242.026,68.900) scale(0.013786,-0.013786)"><path d="M709 0V385H405V303H627V283C627 153 531 64 398 64C233 64 137 184 137 362C137 541 239 665 393 665C504 665 584 602 604 508H699C673 656 561 747 394 747C171 747 44 575 44 357C44 133 181 -18 378 -18C477 -18 556 17 627 96L650 0Z"/></g>
</g>
<rect x="57.0" y="51.85" width="340.8" height="1.05" fill="#96A0CD"/>
</svg>